<svg xmlns="http://www.w3.org/2000/svg" viewBox="0 0 920 1040" width="920" height="1040" role="img" aria-label="argus runs one bounded QA cycle of eleven phases from ORIENT to ROTATE, applying five review lenses and six bypass classes, grading every claim by evidence tier and falsifying it before filing de-duplicated GitHub issues; it tests but never fixes, using seeded accounts on the dev app only, and keeps state under .argus/.">
  <title>/argus — autonomous QA cycle</title>
  <desc>One invocation is one bounded cycle of eleven phases: ORIENT, SELECT, INTAKE, CHARTER, EXECUTE, OBSERVE, MINIMIZE, TRIAGE, REPORT, PERSIST, ROTATE, each owing an artifact. Five lenses — User, PM, Senior QA, Auditor, Curator; the Auditor lens and bypass classes A to F run every cycle, and the Curator runs on rendered surfaces in live mode. Every claim is graded by evidence tier T1 to T4; S1 and S2 need at least one T1 observation, and each finding is falsified before filing. Output is de-duplicated GitHub issues fingerprinted by root cause, plus state under .argus/. argus tests but never fixes, works only the dev app with seeded accounts, and static mode caps severity at S3.</desc>
  <style>
    text{font-family:-apple-system,BlinkMacSystemFont,'Segoe UI',Inter,Helvetica,Arial,sans-serif;fill:#dbe3ee}
    .mono{font-family:ui-monospace,SFMono-Regular,Menlo,Consolas,'Liberation Mono',monospace}
    .canvas{fill:#0f1623;stroke:#263247;stroke-width:1}
    .eyebrow{font-size:11.5px;font-weight:700;letter-spacing:.12em;fill:#a5b4fc}
    .h1{font-size:25px;font-weight:750;fill:#f1f5f9;letter-spacing:-.01em}
    .sub{font-size:13.5px;fill:#9fb0c6}
    .sec{font-size:15px;font-weight:700;fill:#f1f5f9}
    .sec2{font-size:12.5px;fill:#9fb0c6}
    .ttl{font-size:14px;font-weight:650;fill:#f1f5f9}
    .t{font-size:13px;fill:#dbe3ee}
    .tb{font-size:13px;font-weight:650;fill:#f1f5f9}
    .cap{font-size:12px;fill:#9fb0c6}
    .lbl{font-size:11.5px;font-weight:650;letter-spacing:.06em;fill:#9fb0c6}
    .chipt{font-size:11.5px;font-weight:600}
    .white{fill:#ffffff}
    .ink{fill:#f1f5f9} .muted{fill:#9fb0c6} .accent{fill:#a5b4fc} .tealt{fill:#5eead4}
    .card{fill:#172133;stroke:#2e3c55;stroke-width:1}
    .sunken{fill:#121a28;stroke:#253147;stroke-width:1}
    .chip{fill:#121a28;stroke:#2e3c55;stroke-width:1}
    .ar{stroke:#8796ad;stroke-width:1.6;fill:none;stroke-linecap:round;stroke-linejoin:round}
    .ar-g{stroke:#22c55e;stroke-width:1.7;fill:none;stroke-linecap:round;stroke-linejoin:round}
    .ar-a{stroke:#f59e0b;stroke-width:1.6;fill:none;stroke-dasharray:5 4;stroke-linecap:round;stroke-linejoin:round}
    .ar-b{stroke:#93c5fd;stroke-width:1.6;fill:none;stroke-dasharray:6 4;stroke-linecap:round}
    .ar-v{stroke:#a78bfa;stroke-width:1.6;fill:none;stroke-dasharray:6 4;stroke-linecap:round}
    .guard{stroke:#ef4444;stroke-width:1.4;fill:none;stroke-dasharray:2 4;stroke-linecap:round}
    .m-n{stroke:#8796ad} .m-g{stroke:#22c55e} .m-a{stroke:#f59e0b} .m-b{stroke:#93c5fd} .m-v{stroke:#a78bfa}
    .ico{fill:none;stroke-width:1.75;stroke-linecap:round;stroke-linejoin:round}
    .ico-n{stroke:#9fb0c6} .ico-w{stroke:#ffffff}
    .rule{stroke:#2e3c55;stroke-width:1}
    .c-blue{fill:#93c5fd} .k-blue{fill:#0f1e38;stroke:#2f5596;stroke-width:1.25} .s-blue{stroke:#93c5fd} .f-blue{fill:#93c5fd} .tile-blue{fill:#0f1e38;stroke:#2f5596;stroke-width:1}
    .c-green{fill:#4ade80} .k-green{fill:#0b2417;stroke:#1f7a45;stroke-width:1.25} .s-green{stroke:#22c55e} .f-green{fill:#22c55e} .tile-green{fill:#0b2417;stroke:#1f7a45;stroke-width:1}
    .c-amber{fill:#fbbf24} .k-amber{fill:#271c08;stroke:#8a5d12;stroke-width:1.25} .s-amber{stroke:#f59e0b} .f-amber{fill:#f59e0b} .tile-amber{fill:#271c08;stroke:#8a5d12;stroke-width:1}
    .c-red{fill:#fca5a5} .k-red{fill:#2a1216;stroke:#8f3434;stroke-width:1.25} .s-red{stroke:#ef4444} .f-red{fill:#ef4444} .tile-red{fill:#2a1216;stroke:#8f3434;stroke-width:1}
    .c-violet{fill:#c4b5fd} .k-violet{fill:#1c1736;stroke:#5b4aa3;stroke-width:1.25} .s-violet{stroke:#a78bfa} .f-violet{fill:#a78bfa} .tile-violet{fill:#1c1736;stroke:#5b4aa3;stroke-width:1}
  </style>
  <defs>
    <linearGradient id="brand" x1="0" y1="0" x2="1" y2="1"><stop offset="0" stop-color="#0f766e"/><stop offset="1" stop-color="#4f46e5"/></linearGradient>
    <linearGradient id="brandbar" x1="0" y1="0" x2="1" y2="0"><stop offset="0" stop-color="#14b8a6"/><stop offset=".55" stop-color="#6366f1"/><stop offset="1" stop-color="#a855f7"/></linearGradient>
    <filter id="sh" x="-10%" y="-10%" width="120%" height="140%"><feDropShadow dx="0" dy="1" stdDeviation="1" flood-color="#000000" flood-opacity="0.35"/><feDropShadow dx="0" dy="4" stdDeviation="6" flood-color="#000000" flood-opacity="0.25"/></filter>
    <marker id="mn" viewBox="0 0 10 10" refX="8.5" refY="5" markerWidth="9" markerHeight="9" markerUnits="userSpaceOnUse" orient="auto-start-reverse"><path d="M1.5,1.5 L8.5,5 L1.5,8.5" fill="none" stroke-width="1.8" stroke-linecap="round" stroke-linejoin="round" class="m-n"/></marker><marker id="mg" viewBox="0 0 10 10" refX="8.5" refY="5" markerWidth="9" markerHeight="9" markerUnits="userSpaceOnUse" orient="auto-start-reverse"><path d="M1.5,1.5 L8.5,5 L1.5,8.5" fill="none" stroke-width="1.8" stroke-linecap="round" stroke-linejoin="round" class="m-g"/></marker><marker id="ma" viewBox="0 0 10 10" refX="8.5" refY="5" markerWidth="9" markerHeight="9" markerUnits="userSpaceOnUse" orient="auto-start-reverse"><path d="M1.5,1.5 L8.5,5 L1.5,8.5" fill="none" stroke-width="1.8" stroke-linecap="round" stroke-linejoin="round" class="m-a"/></marker><marker id="mb" viewBox="0 0 10 10" refX="8.5" refY="5" markerWidth="9" markerHeight="9" markerUnits="userSpaceOnUse" orient="auto-start-reverse"><path d="M1.5,1.5 L8.5,5 L1.5,8.5" fill="none" stroke-width="1.8" stroke-linecap="round" stroke-linejoin="round" class="m-b"/></marker><marker id="mv" viewBox="0 0 10 10" refX="8.5" refY="5" markerWidth="9" markerHeight="9" markerUnits="userSpaceOnUse" orient="auto-start-reverse"><path d="M1.5,1.5 L8.5,5 L1.5,8.5" fill="none" stroke-width="1.8" stroke-linecap="round" stroke-linejoin="round" class="m-v"/></marker>
  </defs>
  <rect x="0.5" y="0.5" width="919" height="1039" rx="20" class="canvas"/>
  <clipPath id="cv"><rect x="0" y="0" width="920" height="1040" rx="20"/></clipPath>
  <rect x="0" y="0" width="920" height="4" fill="url(#brandbar)" clip-path="url(#cv)"/>
  <text x="32" y="46" class="eyebrow">AUTONOMOUS QA · /argus</text>
  <text x="32" y="78" class="h1">One bounded QA cycle</text>
  <text x="32" y="102" class="sub">Hunt bugs, business-rule breaks, insider fraud and rendered-surface defects on the live dev app. Test, never fix.</text>
  <rect x="32" y="128" width="856" height="46" rx="12" class="k-blue" />
  <rect x="44" y="134" width="34" height="34" rx="9.5625" class="tile-blue"/>
  <g transform="translate(50.375,140.375) scale(0.8854166666666667)"><path d="M7 3h7l4.5 4.5V21H7z M14 3v4.5h4.5 M10 12h5.5 M10 16h5.5" class="ico s-blue"/></g>
  <text x="90" y="156" class="t"><tspan class="tb">Reads</tspan>  profile <tspan class="mono">.claude/sapu/argus.md</tspan> + <tspan class="mono">.argus/config.yml</tspan> (repo, URLs, seeded accounts, scope, limits)</text>
  <rect x="32" y="196" width="316" height="444" rx="14" class="card" filter="url(#sh)"/>
  <rect x="48" y="212" width="36" height="36" rx="10.125" fill="url(#brand)"/>
  <g transform="translate(54.75,218.75) scale(0.9375)"><path d="M9 4.5a3.5 3.5 0 1 0 0.01 0 M3 20c0-3.6 2.7-6 6-6s6 2.4 6 6 M16.5 5.5a2.8 2.8 0 1 1 0 5.6 M17.5 14.2c2.2.5 3.5 2.6 3.5 5.3" class="ico ico-w"/></g>
  <text x="96" y="228" class="ttl">Council of Five</text>
  <text x="96" y="246" class="cap">each lens owes an output</text>
  <rect x="48" y="272" width="284" height="54" rx="10" class="sunken" />
  <circle cx="70" cy="299" r="13" class="tile-violet"/>
  <text x="70" y="303" class="chipt c-violet" text-anchor="middle">U</text>
  <text x="92" y="304" class="t"><tspan class="tb">User</tspan><tspan class="muted"> — </tspan>interrupted flow</text>
  <rect x="48" y="334" width="284" height="54" rx="10" class="sunken" />
  <circle cx="70" cy="361" r="13" class="tile-violet"/>
  <text x="70" y="365" class="chipt c-violet" text-anchor="middle">PM</text>
  <text x="92" y="366" class="t"><tspan class="tb">PM</tspan><tspan class="muted"> — </tspan>rule + money exposure</text>
  <rect x="48" y="396" width="284" height="54" rx="10" class="sunken" />
  <circle cx="70" cy="423" r="13" class="tile-violet"/>
  <text x="70" y="427" class="chipt c-violet" text-anchor="middle">QA</text>
  <text x="92" y="428" class="t"><tspan class="tb">Senior QA</tspan><tspan class="muted"> — </tspan>boundaries, races</text>
  <rect x="48" y="458" width="284" height="54" rx="10" class="sunken" />
  <circle cx="70" cy="485" r="13" class="tile-violet"/>
  <text x="70" y="489" class="chipt c-violet" text-anchor="middle">A</text>
  <text x="92" y="480" class="t"><tspan class="tb">Auditor</tspan><tspan class="muted"> — </tspan>insider fraud</text>
  <text x="92" y="499" class="cap c-amber">runs every cycle</text>
  <rect x="48" y="520" width="284" height="54" rx="10" class="sunken" />
  <circle cx="70" cy="547" r="13" class="tile-violet"/>
  <text x="70" y="551" class="chipt c-violet" text-anchor="middle">C</text>
  <text x="92" y="542" class="t"><tspan class="tb">Curator</tspan><tspan class="muted"> — </tspan>rendered surface</text>
  <text x="92" y="561" class="cap c-blue">live mode only · measured</text>
  <text x="48" y="618" class="t"><tspan class="tb">+ six bypass classes A–F</tspan>, every cycle</text>
  <rect x="364" y="196" width="524" height="444" rx="14" class="card" filter="url(#sh)"/>
  <rect x="380" y="212" width="36" height="36" rx="10.125" fill="url(#brand)"/>
  <g transform="translate(386.75,218.75) scale(0.9375)"><path d="M20 12a8 8 0 1 1-2.4-5.7 M20 4v4.5h-4.5" class="ico ico-w"/></g>
  <text x="428" y="228" class="ttl">The cycle</text>
  <text x="428" y="246" class="cap">eleven phases · each owes an artifact</text>
  <rect x="380" y="272" width="238" height="50" rx="10" class="sunken" />
  <circle cx="402" cy="297" r="12" fill="url(#brand)"/>
  <text x="402" y="301.5" class="white" text-anchor="middle" style="font-size:11.5px;font-weight:700">1</text>
  <text x="424" y="293" class="tb">ORIENT</text>
  <text x="424" y="311" class="cap">preflight passes</text>
  <rect x="380" y="332" width="238" height="50" rx="10" class="sunken" />
  <circle cx="402" cy="357" r="12" fill="url(#brand)"/>
  <text x="402" y="361.5" class="white" text-anchor="middle" style="font-size:11.5px;font-weight:700">2</text>
  <text x="424" y="353" class="tb">SELECT</text>
  <text x="424" y="371" class="cap">ranked area to probe</text>
  <rect x="380" y="392" width="238" height="50" rx="10" class="sunken" />
  <circle cx="402" cy="417" r="12" fill="url(#brand)"/>
  <text x="402" y="421.5" class="white" text-anchor="middle" style="font-size:11.5px;font-weight:700">3</text>
  <text x="424" y="413" class="tb">INTAKE</text>
  <text x="424" y="431" class="cap">sapu / forge residue</text>
  <rect x="380" y="452" width="238" height="50" rx="10" class="sunken" />
  <circle cx="402" cy="477" r="12" fill="url(#brand)"/>
  <text x="402" y="481.5" class="white" text-anchor="middle" style="font-size:11.5px;font-weight:700">4</text>
  <text x="424" y="473" class="tb">CHARTER</text>
  <text x="424" y="491" class="cap">plan + assumptions first</text>
  <rect x="380" y="512" width="238" height="50" rx="10" class="sunken" />
  <circle cx="402" cy="537" r="12" fill="url(#brand)"/>
  <text x="402" y="541.5" class="white" text-anchor="middle" style="font-size:11.5px;font-weight:700">5</text>
  <text x="424" y="533" class="tb">EXECUTE</text>
  <text x="424" y="551" class="cap">probe log + tier</text>
  <rect x="380" y="572" width="238" height="50" rx="10" class="sunken" />
  <circle cx="402" cy="597" r="12" fill="url(#brand)"/>
  <text x="402" y="601.5" class="white" text-anchor="middle" style="font-size:11.5px;font-weight:700">6</text>
  <text x="424" y="593" class="tb">OBSERVE</text>
  <text x="424" y="611" class="cap">read state back</text>
  <rect x="634" y="272" width="238" height="50" rx="10" class="sunken" />
  <circle cx="656" cy="297" r="12" fill="url(#brand)"/>
  <text x="656" y="301.5" class="white" text-anchor="middle" style="font-size:11.5px;font-weight:700">7</text>
  <text x="678" y="293" class="tb">MINIMIZE</text>
  <text x="678" y="311" class="cap">strip to minimal repro</text>
  <rect x="634" y="332" width="238" height="50" rx="10" class="sunken" />
  <circle cx="656" cy="357" r="12" fill="url(#brand)"/>
  <text x="656" y="361.5" class="white" text-anchor="middle" style="font-size:11.5px;font-weight:700">8</text>
  <text x="678" y="353" class="tb">TRIAGE</text>
  <text x="678" y="371" class="cap">candidates + refutation</text>
  <rect x="634" y="392" width="238" height="50" rx="10" class="sunken" />
  <circle cx="656" cy="417" r="12" fill="url(#brand)"/>
  <text x="656" y="421.5" class="white" text-anchor="middle" style="font-size:11.5px;font-weight:700">9</text>
  <text x="678" y="413" class="tb">REPORT</text>
  <text x="678" y="431" class="cap">file issues (gated)</text>
  <rect x="634" y="452" width="238" height="50" rx="10" class="sunken" />
  <circle cx="656" cy="477" r="12" fill="url(#brand)"/>
  <text x="656" y="481.5" class="white" text-anchor="middle" style="font-size:11.5px;font-weight:700">10</text>
  <text x="678" y="473" class="tb">PERSIST</text>
  <text x="678" y="491" class="cap">journal + fingerprints</text>
  <rect x="634" y="512" width="238" height="50" rx="10" class="sunken" />
  <circle cx="656" cy="537" r="12" fill="url(#brand)"/>
  <text x="656" y="541.5" class="white" text-anchor="middle" style="font-size:11.5px;font-weight:700">11</text>
  <text x="678" y="533" class="tb">ROTATE</text>
  <text x="678" y="551" class="cap">pin next cycle's lane</text>
  <text x="646" y="602" class="cap c-violet">one invocation = one bounded cycle</text>
  <rect x="32" y="660" width="520" height="166" rx="14" class="card" filter="url(#sh)"/>
  <text x="48" y="690" class="ttl">The law of evidence</text>
  <rect x="48" y="706" width="36" height="22" rx="11" class="k-green"/>
  <text x="58" y="721" class="chipt c-green">T1</text>
  <text x="98" y="721" class="t">observed — wire / DB / DOM</text>
  <rect x="48" y="732" width="36" height="22" rx="11" class="k-blue"/>
  <text x="58" y="747" class="chipt c-blue">T2</text>
  <text x="98" y="747" class="t">a command or test you ran</text>
  <rect x="48" y="758" width="36" height="22" rx="11" class="k-violet"/>
  <text x="58" y="773" class="chipt c-violet">T3</text>
  <text x="98" y="773" class="t">read in source at a commit</text>
  <rect x="48" y="784" width="36" height="22" rx="11" class="chip"/>
  <text x="58" y="799" class="chipt muted">T4</text>
  <text x="98" y="799" class="t">inferred from T1–T3</text>
  <rect x="330" y="706" width="206" height="98" rx="10" class="k-amber" />
  <text x="346" y="732" class="tb c-amber">S1 / S2 need</text>
  <text x="346" y="752" class="tb c-amber">≥ 1 T1 item</text>
  <text x="346" y="782" class="cap">falsify before filing</text>
  <rect x="568" y="660" width="320" height="166" rx="14" class="k-green" />
  <rect x="584" y="676" width="34" height="34" rx="9.5625" class="tile-green"/>
  <g transform="translate(590.375,682.375) scale(0.8854166666666667)"><path d="M5 21V4 M5 4.5h11l-2 4 2 4H5" class="ico s-green"/></g>
  <text x="630" y="698" class="ttl">Output</text>
  <text x="584" y="736" class="t">· de-duplicated GitHub issues</text>
<text x="584" y="757" class="t">· the root cause fingerprinted</text>
<text x="584" y="778" class="t">· one defect per issue</text>
<text x="584" y="799" class="t">· state under <tspan class="mono">.argus/</tspan></text>
  <rect x="32" y="846" width="856" height="168" rx="14" class="k-red" />
  <rect x="44" y="862" width="34" height="34" rx="9.5625" class="tile-red"/>
  <g transform="translate(50.375,868.375) scale(0.8854166666666667)"><path d="M8.5 3h7L21 8.5v7L15.5 21h-7L3 15.5v-7z M9 9l6 6 M15 9l-6 6" class="ico s-red"/></g>
  <text x="90" y="876" class="t"><tspan class="tb c-red">Hard limits</tspan></text>
  <text x="90" y="900" class="cap">· You test; you don't fix — no product-code edits, commits or PRs.</text>
<text x="90" y="918" class="cap">· Asked to fix mid-cycle → end the cycle first, then hand to /forge in a separate session.</text>
<text x="90" y="936" class="cap">· Dev / local only, seeded accounts only — never production, never real customer or employee data.</text>
<text x="90" y="954" class="cap">· mode=static (servers down) caps every severity at S3 and needs a reachability chain.</text>
<text x="90" y="972" class="cap">· A subagent returns a candidate, never a finding — the orchestrator re-runs the repro itself.</text>
<text x="90" y="990" class="cap">· File only what you'd bet 4:1 a maintainer reproduces — a wrong issue gets implemented.</text>
</svg>
